<svg width="32" height="32" viewBox="0 0 32 32" fill="none" xmlns="http://www.w3.org/2000/svg">
<path d="M9.56686 29.3C8.9002 29.3 8.33353 29.0667 7.86686 28.6C7.4002 28.1333 7.16686 27.5667 7.16686 26.9C7.16686 26.2333 7.4002 25.6667 7.86686 25.2C8.33353 24.7333 8.9002 24.5 9.56686 24.5C10.2113 24.5 10.7724 24.7333 11.2502 25.2C11.728 25.6667 11.9669 26.2333 11.9669 26.9C11.9669 27.5667 11.7335 28.1333 11.2669 28.6C10.8002 29.0667 10.2335 29.3 9.56686 29.3ZM22.9002 29.3C22.2335 29.3 21.6669 29.0667 21.2002 28.6C20.7335 28.1333 20.5002 27.5667 20.5002 26.9C20.5002 26.2333 20.7335 25.6667 21.2002 25.2C21.6669 24.7333 22.2335 24.5 22.9002 24.5C23.5446 24.5 24.1057 24.7333 24.5835 25.2C25.0613 25.6667 25.3002 26.2333 25.3002 26.9C25.3002 27.5667 25.0669 28.1333 24.6002 28.6C24.1335 29.0667 23.5669 29.3 22.9002 29.3ZM7.83353 7.29999L11.5002 14.9H21.1002L25.2669 7.29999H7.83353ZM9.23353 22.3667C8.3002 22.3667 7.62797 22.0555 7.21686 21.4333C6.80575 20.8111 6.81131 20.1111 7.23353 19.3333L9.36686 15.4L4.30019 4.66666H2.66686C2.4002 4.66666 2.17242 4.56666 1.98353 4.36666C1.79464 4.16666 1.7002 3.92221 1.7002 3.63332C1.7002 3.36666 1.79464 3.13888 1.98353 2.94999C2.17242 2.7611 2.41131 2.66666 2.7002 2.66666H4.96686C5.16686 2.66666 5.34464 2.71666 5.5002 2.81666C5.65575 2.91666 5.77797 3.05555 5.86686 3.23332L6.83353 5.29999H26.4669C27.178 5.29999 27.628 5.51666 27.8169 5.94999C28.0057 6.38332 27.9446 6.86666 27.6335 7.39999L23.1335 15.5C22.9113 15.8778 22.6002 16.2055 22.2002 16.4833C21.8002 16.7611 21.3669 16.9 20.9002 16.9H10.8002L8.93353 20.3667H24.3335C24.6002 20.3667 24.828 20.4667 25.0169 20.6667C25.2058 20.8667 25.3002 21.1 25.3002 21.3667C25.3002 21.6555 25.2058 21.8944 25.0169 22.0833C24.828 22.2722 24.5891 22.3667 24.3002 22.3667H9.23353ZM11.5002 14.9H21.1002H11.5002Z" fill="white"/>
</svg>
