<svg width="32" height="32" viewBox="0 0 32 32" fill="none" xmlns="http://www.w3.org/2000/svg">
<path d="M7.1 26.1667C6.12222 25.1667 5.36111 24.0111 4.81667 22.7C4.27222 21.3889 4 20.0444 4 18.6667C4 17.0444 4.28333 15.5611 4.85 14.2167C5.41667 12.8722 6.26667 11.6333 7.4 10.5C8.17778 9.72221 9.14444 9.06665 10.3 8.53332C11.4556 7.99999 12.8167 7.58332 14.3833 7.28332C15.95 6.98332 17.7222 6.79443 19.7 6.71665C21.6778 6.63888 23.8778 6.67776 26.3 6.83332C26.4778 9.23332 26.5389 11.4278 26.4833 13.4167C26.4278 15.4055 26.25 17.1889 25.95 18.7667C25.65 20.3444 25.2278 21.7278 24.6833 22.9167C24.1389 24.1055 23.4667 25.1 22.6667 25.9C21.5333 27.0333 20.3111 27.8889 19 28.4667C17.6889 29.0444 16.2889 29.3333 14.8 29.3333C13.2667 29.3333 11.8611 29.0722 10.5833 28.55C9.30556 28.0278 8.14444 27.2333 7.1 26.1667ZM10.5333 26.1667C11.0889 26.5444 11.7333 26.8333 12.4667 27.0333C13.2 27.2333 13.9778 27.3333 14.8 27.3333C15.9778 27.3333 17.1222 27.0889 18.2333 26.6C19.3444 26.1111 20.3556 25.4 21.2667 24.4667C21.8667 23.8667 22.3778 23.0833 22.8 22.1167C23.2222 21.15 23.5667 20.0055 23.8333 18.6833C24.1 17.3611 24.2778 15.8667 24.3667 14.2C24.4556 12.5333 24.4556 10.7 24.3667 8.69999C22.2778 8.65554 20.4056 8.68332 18.75 8.78332C17.0944 8.88332 15.6333 9.06665 14.3667 9.33332C13.1 9.59999 12.0111 9.93888 11.1 10.35C10.1889 10.7611 9.44444 11.2667 8.86667 11.8667C7.93333 12.8222 7.22222 13.8333 6.73333 14.9C6.24444 15.9667 6 17.0555 6 18.1667C6 19.2333 6.22778 20.35 6.68333 21.5167C7.13889 22.6833 7.7 23.6222 8.36667 24.3333C9.54444 22.1555 10.9556 20.2 12.6 18.4667C14.2444 16.7333 15.9889 15.3667 17.8333 14.3667C15.9 16.0333 14.3333 17.8389 13.1333 19.7833C11.9333 21.7278 11.0667 23.8555 10.5333 26.1667V26.1667Z" fill="url(#paint0_linear_311_460)"/>
<defs>
<linearGradient id="paint0_linear_311_460" x1="15.2516" y1="6.67776" x2="15.2516" y2="29.3333" gradientUnits="userSpaceOnUse">
<stop stop-color="#490519"/>
<stop offset="1" stop-color="#2E0109"/>
</linearGradient>
</defs>
</svg>
