<svg width="32" height="32" viewBox="0 0 32 32" fill="none" xmlns="http://www.w3.org/2000/svg">
<path d="M20.1998 21.7C20.3998 21.9 20.6332 22 20.8998 22C21.1665 22 21.4109 21.8889 21.6332 21.6667C21.8554 21.4444 21.9721 21.1889 21.9832 20.9C21.9943 20.6111 21.8887 20.3667 21.6665 20.1667L17.0998 15.6V9.86666C17.0998 9.59999 17.0054 9.37221 16.8165 9.18332C16.6276 8.99443 16.3887 8.89999 16.0998 8.89999C15.8109 8.89999 15.5721 8.99443 15.3832 9.18332C15.1943 9.37221 15.0998 9.6111 15.0998 9.89999V16C15.0998 16.1333 15.1221 16.2555 15.1665 16.3667C15.2109 16.4778 15.2776 16.5889 15.3665 16.7L20.1998 21.7ZM15.9998 29.3333C14.1776 29.3333 12.4554 28.9833 10.8332 28.2833C9.21095 27.5833 7.79428 26.6278 6.58317 25.4167C5.37206 24.2055 4.4165 22.7889 3.7165 21.1667C3.0165 19.5444 2.6665 17.8222 2.6665 16C2.6665 14.1778 3.0165 12.4555 3.7165 10.8333C4.4165 9.2111 5.37206 7.79443 6.58317 6.58332C7.79428 5.37221 9.21095 4.41666 10.8332 3.71666C12.4554 3.01666 14.1776 2.66666 15.9998 2.66666C17.8221 2.66666 19.5443 3.01666 21.1665 3.71666C22.7887 4.41666 24.2054 5.37221 25.4165 6.58332C26.6276 7.79443 27.5832 9.2111 28.2832 10.8333C28.9832 12.4555 29.3332 14.1778 29.3332 16C29.3332 17.8222 28.9832 19.5444 28.2832 21.1667C27.5832 22.7889 26.6276 24.2055 25.4165 25.4167C24.2054 26.6278 22.7887 27.5833 21.1665 28.2833C19.5443 28.9833 17.8221 29.3333 15.9998 29.3333ZM15.9998 27.3333C19.1109 27.3333 21.7776 26.2222 23.9998 24C26.2221 21.7778 27.3332 19.1111 27.3332 16C27.3332 12.8889 26.2221 10.2222 23.9998 7.99999C21.7776 5.77777 19.1109 4.66666 15.9998 4.66666C12.8887 4.66666 10.2221 5.77777 7.99984 7.99999C5.77761 10.2222 4.6665 12.8889 4.6665 16C4.6665 19.1111 5.77761 21.7778 7.99984 24C10.2221 26.2222 12.8887 27.3333 15.9998 27.3333Z" fill="url(#paint0_linear_311_477)"/>
<defs>
<linearGradient id="paint0_linear_311_477" x1="15.9998" y1="2.66666" x2="15.9998" y2="29.3333" gradientUnits="userSpaceOnUse">
<stop stop-color="#490519"/>
<stop offset="1" stop-color="#2E0109"/>
</linearGradient>
</defs>
</svg>
