<svg width="48" height="48" viewBox="0 0 48 48" fill="none" xmlns="http://www.w3.org/2000/svg">
<path d="M24 11.5V7.5C24 6.4 24.3917 5.45833 25.175 4.675C25.9583 3.89167 26.9 3.5 28 3.5H32V7.5C32 8.6 31.6083 9.54167 30.825 10.325C30.0417 11.1083 29.1 11.5 28 11.5H24ZM10 23.5C8.33333 23.5 6.91667 22.9167 5.75 21.75C4.58333 20.5833 4 19.1667 4 17.5V11.5H10C11.6667 11.5 13.0833 12.0833 14.25 13.25C15.4167 14.4167 16 15.8333 16 17.5V23.5H10Z" fill="#A9BC96"/>
<path d="M18.5001 30V34C18.5001 35.1 18.1085 36.0417 17.3251 36.825C16.5418 37.6083 15.6001 38 14.5001 38H10.5001V34C10.5001 32.9 10.8918 31.9583 11.6751 31.175C12.4585 30.3917 13.4001 30 14.5001 30H18.5001ZM32.5001 18C34.1668 18 35.5835 18.5833 36.7501 19.75C37.9168 20.9167 38.5001 22.3333 38.5001 24V30H32.5001C30.8335 30 29.4168 29.4167 28.2501 28.25C27.0835 27.0833 26.5001 25.6667 26.5001 24V18H32.5001Z" fill="#A9BC96"/>
</svg>
