<svg width="27" height="18" viewBox="0 0 27 18" fill="none" xmlns="http://www.w3.org/2000/svg">
<path d="M17.3001 17.6333C17.1001 17.4333 17.0001 17.2 17.0001 16.9333C17.0001 16.6667 17.1001 16.4333 17.3001 16.2333L23.5334 9.99998H1.66675C1.37786 9.99998 1.13897 9.90554 0.950082 9.71665C0.761193 9.52776 0.666748 9.28887 0.666748 8.99998C0.666748 8.71109 0.761193 8.4722 0.950082 8.28332C1.13897 8.09443 1.37786 7.99998 1.66675 7.99998H23.5334L17.3001 1.76665C17.1223 1.58887 17.0279 1.36109 17.0167 1.08332C17.0056 0.805539 17.1001 0.56665 17.3001 0.36665C17.5001 0.16665 17.7334 0.0666504 18.0001 0.0666504C18.2667 0.0666504 18.5001 0.16665 18.7001 0.36665L26.6334 8.29998C26.7445 8.41109 26.8223 8.52221 26.8667 8.63332C26.9112 8.74443 26.9334 8.86665 26.9334 8.99998C26.9334 9.13332 26.9112 9.25554 26.8667 9.36665C26.8223 9.47776 26.7445 9.58887 26.6334 9.69998L18.7001 17.6333C18.5001 17.8333 18.2667 17.9333 18.0001 17.9333C17.7334 17.9333 17.5001 17.8333 17.3001 17.6333Z" fill="#F5FEE2"/>
</svg>
